# xmcd
#
# Track frame offsets:
#	182
#	17762
#	32275
#	48615
#	60722
#	73120
#	86562
#	105655
#	121650
#	134670
#	153482
#	164652
#	180097
#	196660
#
# Disc length: 2821
#
# Revision: 2
# Processed by: cddbd v1.5.2PL0 Copyright (c) Steve Scherf et al.
# Submitted via: Broken Cross Disk Manager 3.94.2201
#
DISCID=b40b030e
DTITLE=John Brack - Singing - Face To Face
DYEAR=1990
DGENRE=
TTITLE0=Angel Eyes
TTITLE1=Perfect Crime
TTITLE2=Simple Goodbye
TTITLE3=You Are
TTITLE4=Long On Being Home
TTITLE5=God Made Love
TTITLE6=I Fall To Pieces
TTITLE7=Is This Your Way Of Telling Me Goodbye
TTITLE8=A Little Bit Of Love
TTITLE9=Let's Run
TTITLE10=Nothing Goes Right When Love Goes Wrong
TTITLE11=Like Lovers Do
TTITLE12=Tennessee Homecoming
TTITLE13=What About You ?
EXTD=
EXTT0=
EXTT1=
EXTT2=
EXTT3=
EXTT4=
EXTT5=
EXTT6=
EXTT7=
EXTT8=
EXTT9=
EXTT10=
EXTT11=
EXTT12=
EXTT13=
PLAYORDER=
